<svg height="24" preserveAspectRatio="xMinYMin" viewBox="-2 -2 24 24" width="24" xmlns="http://www.w3.org/2000/svg"><path d="m6 0h8a6 6 0 0 1 6 6v8a6 6 0 0 1 -6 6h-8a6 6 0 0 1 -6-6v-8a6 6 0 0 1 6-6zm0 2a4 4 0 0 0 -4 4v8a4 4 0 0 0 4 4h8a4 4 0 0 0 4-4v-8a4 4 0 0 0 -4-4zm6 7h3a1 1 0 0 1 0 2h-3a1 1 0 0 1 0-2zm-2 4h5a1 1 0 0 1 0 2h-5a1 1 0 0 1 0-2zm0-8h5a1 1 0 0 1 0 2h-5a1 1 0 1 1 0-2zm-4.172 5.243 2.122-2.123a1 1 0 1 1 1.414 1.415l-2.828 2.828a1 1 0 0 1 -1.415 0l-1.414-1.413a1 1 0 0 1 1.414-1.414z"/></svg>